<svg xmlns="http://www.w3.org/2000/svg" viewBox="0 0 64 64">
  <title>Cosmereando</title>
  <circle cx="32" cy="32" r="4.25" fill="#a76d3e" />
  <g fill="none" stroke="#a76d3e" stroke-linecap="round" stroke-width="2">
    <path d="M32 32c5-4 12-3 14 2 2 6-4 12-12 13-11 1-20-5-20-14 0-11 12-20 24-19 14 1 24 11 23 22-1 13-15 23-29 23-15 0-26-9-25-21" />
    <path d="M32 32c-3 4-2 9 3 11 6 3 15-1 18-8 4-9-2-19-12-23-12-5-26 0-32 9-7 10-4 22 6 29" />
  </g>
  <g fill="#a76d3e">
    <circle cx="12" cy="18" r="1.25" />
    <circle cx="51" cy="13" r="1.25" />
    <circle cx="8" cy="42" r="1" />
    <circle cx="54" cy="48" r="1" />
  </g>
</svg>
